<?xml version="1.0" encoding="UTF-8" standalone="no"?> <svg xmlns="http://www.w3.org/2000/svg" viewBox="0 0 64 64"><g id="Layer_8" data-name="Layer 8"><path d="M45.42,12.9H18.58a5.69,5.69,0,0,0-5.68,5.68V45.42a5.69,5.69,0,0,0,5.68,5.68H45.42a5.69,5.69,0,0,0,5.68-5.68V18.58A5.69,5.69,0,0,0,45.42,12.9ZM49.6,45.42a4.18,4.18,0,0,1-4.18,4.18H18.58a4.18,4.18,0,0,1-4.18-4.18V18.58a4.18,4.18,0,0,1,4.18-4.18H45.42a4.18,4.18,0,0,1,4.18,4.18Z"/><path d="M32,23.48A8.52,8.52,0,1,0,40.52,32,8.53,8.53,0,0,0,32,23.48ZM32,39a7,7,0,1,1,7-7A7,7,0,0,1,32,39Z"/><path d="M43.3,20.28A.75.75,0,1,0,43,21.72a.72.72,0,0,0,.29-.06.78.78,0,0,0,.24-.16.75.75,0,0,0,0-1.06A.63.63,0,0,0,43.3,20.28Z"/><path d="M32,60.75A28.75,28.75,0,1,1,60.75,32,28.79,28.79,0,0,1,32,60.75Zm0-56A27.25,27.25,0,1,0,59.25,32,27.28,27.28,0,0,0,32,4.75Z"/></g></svg>